<svg width="19" height="19" viewBox="0 0 19 19" fill="none" xmlns="http://www.w3.org/2000/svg">
<path d="M13.6562 2.375H5.34375C5.02881 2.375 4.72676 2.50011 4.50406 2.72281C4.28136 2.94551 4.15625 3.24756 4.15625 3.5625V16.625C4.1563 16.731 4.18471 16.835 4.23853 16.9263C4.29234 17.0175 4.36961 17.0928 4.4623 17.1441C4.55499 17.1954 4.65973 17.221 4.76566 17.2182C4.87158 17.2155 4.97483 17.1844 5.06469 17.1282L9.5 14.3561L13.9361 17.1282C14.0259 17.1842 14.1291 17.2151 14.2349 17.2178C14.3407 17.2205 14.4453 17.1949 14.5379 17.1435C14.6305 17.0922 14.7076 17.0171 14.7614 16.9259C14.8152 16.8347 14.8436 16.7308 14.8438 16.625V3.5625C14.8438 3.24756 14.7186 2.94551 14.4959 2.72281C14.2732 2.50011 13.9712 2.375 13.6562 2.375Z" fill="#FFAE2B"/>
</svg>
