<svg width="19" height="18" viewBox="0 0 19 18" fill="none" xmlns="http://www.w3.org/2000/svg">
<path d="M7.25 15H11.75V16.5H7.25V15ZM13.1795 10.284C13.952 9.3795 14.75 8.44425 14.75 6.75C14.75 3.85575 12.3942 1.5 9.5 1.5C6.60575 1.5 4.25 3.85575 4.25 6.75C4.25 8.46375 5.05025 9.396 5.82575 10.2975C6.09425 10.611 6.3725 10.9358 6.63875 11.3093C6.74675 11.4638 6.92375 12.0562 7.082 12.75H6.5V14.25H12.5V12.75H11.9195C12.0792 12.0548 12.257 11.4607 12.3643 11.3062C12.6283 10.929 12.9088 10.6012 13.1795 10.284ZM11.1365 10.4438C10.811 10.9065 10.5395 12 10.382 12.75H8.61875C8.462 11.9985 8.18975 10.9028 7.8605 10.44C7.57907 10.0533 7.27974 9.67985 6.9635 9.321C6.233 8.4705 5.75 7.908 5.75 6.75C5.75 4.68225 7.43225 3 9.5 3C11.5677 3 13.25 4.68225 13.25 6.75C13.25 7.89075 12.7678 8.4555 12.0388 9.30975C11.759 9.63825 11.4418 10.0095 11.1365 10.4438Z" fill="white"/>
</svg>
