<svg width="19" height="18" viewBox="0 0 19 18" fill="none" xmlns="http://www.w3.org/2000/svg">
<path d="M4.25 16.5H14.75C15.5773 16.5 16.25 15.8273 16.25 15V6.75C16.25 6.55109 16.171 6.36032 16.0303 6.21967C15.8897 6.07902 15.6989 6 15.5 6H13.25V5.25C13.25 3.18225 11.5677 1.5 9.5 1.5C7.43225 1.5 5.75 3.18225 5.75 5.25V6H3.5C3.30109 6 3.11032 6.07902 2.96967 6.21967C2.82902 6.36032 2.75 6.55109 2.75 6.75V15C2.75 15.8273 3.42275 16.5 4.25 16.5ZM7.25 5.25C7.25 4.0095 8.2595 3 9.5 3C10.7405 3 11.75 4.0095 11.75 5.25V6H7.25V5.25ZM4.25 7.5H5.75V9H7.25V7.5H11.75V9H13.25V7.5H14.75L14.7515 15H4.25V7.5Z" fill="white"/>
</svg>
