<svg width="19" height="18" viewBox="0 0 19 18" fill="none" xmlns="http://www.w3.org/2000/svg">
<path d="M8 2.25H3.5C3.30109 2.25 3.11032 2.32902 2.96967 2.46967C2.82902 2.61032 2.75 2.80109 2.75 3V7.5C2.75 7.69891 2.82902 7.88968 2.96967 8.03033C3.11032 8.17098 3.30109 8.25 3.5 8.25H8C8.19891 8.25 8.38968 8.17098 8.53033 8.03033C8.67098 7.88968 8.75 7.69891 8.75 7.5V3C8.75 2.80109 8.67098 2.61032 8.53033 2.46967C8.38968 2.32902 8.19891 2.25 8 2.25ZM7.25 6.75H4.25V3.75H7.25V6.75ZM11 8.25H15.5C15.6989 8.25 15.8897 8.17098 16.0303 8.03033C16.171 7.88968 16.25 7.69891 16.25 7.5V3C16.25 2.80109 16.171 2.61032 16.0303 2.46967C15.8897 2.32902 15.6989 2.25 15.5 2.25H11C10.8011 2.25 10.6103 2.32902 10.4697 2.46967C10.329 2.61032 10.25 2.80109 10.25 3V7.5C10.25 7.69891 10.329 7.88968 10.4697 8.03033C10.6103 8.17098 10.8011 8.25 11 8.25ZM11.75 3.75H14.75V6.75H11.75V3.75ZM2.75 15C2.75 15.1989 2.82902 15.3897 2.96967 15.5303C3.11032 15.671 3.30109 15.75 3.5 15.75H8C8.19891 15.75 8.38968 15.671 8.53033 15.5303C8.67098 15.3897 8.75 15.1989 8.75 15V10.5C8.75 10.3011 8.67098 10.1103 8.53033 9.96967C8.38968 9.82902 8.19891 9.75 8 9.75H3.5C3.30109 9.75 3.11032 9.82902 2.96967 9.96967C2.82902 10.1103 2.75 10.3011 2.75 10.5V15ZM4.25 11.25H7.25V14.25H4.25V11.25ZM10.25 15C10.25 15.1989 10.329 15.3897 10.4697 15.5303C10.6103 15.671 10.8011 15.75 11 15.75H15.5C15.6989 15.75 15.8897 15.671 16.0303 15.5303C16.171 15.3897 16.25 15.1989 16.25 15V10.5C16.25 10.3011 16.171 10.1103 16.0303 9.96967C15.8897 9.82902 15.6989 9.75 15.5 9.75H11C10.8011 9.75 10.6103 9.82902 10.4697 9.96967C10.329 10.1103 10.25 10.3011 10.25 10.5V15ZM11.75 11.25H14.75V14.25H11.75V11.25Z" fill="white"/>
</svg>
