<svg width="19" height="18" viewBox="0 0 19 18" fill="none" xmlns="http://www.w3.org/2000/svg">
<path d="M12.9275 16.5C13.1267 16.5011 13.3241 16.4626 13.5083 16.3866C13.6924 16.3107 13.8596 16.1988 14 16.0575L16.0325 14.025C16.1722 13.8845 16.2506 13.6944 16.2506 13.4962C16.2506 13.2981 16.1722 13.108 16.0325 12.9675L13.0325 9.9675C12.892 9.82781 12.7019 9.7494 12.5038 9.7494C12.3056 9.7494 12.1155 9.82781 11.975 9.9675L10.775 11.16C9.94421 10.9385 9.17476 10.5307 8.52502 9.9675C7.96337 9.31673 7.55575 8.54764 7.33252 7.7175L8.52502 6.5175C8.66471 6.37698 8.74312 6.18689 8.74312 5.98875C8.74312 5.79061 8.66471 5.60052 8.52502 5.46L5.52502 2.46C5.3845 2.32031 5.19441 2.2419 4.99627 2.2419C4.79814 2.2419 4.60805 2.32031 4.46753 2.46L2.44252 4.5C2.30125 4.64043 2.18936 4.80759 2.11338 4.99174C2.03741 5.17588 1.99887 5.3733 2.00003 5.5725C2.06807 8.45422 3.21958 11.2045 5.22503 13.275C7.29556 15.2804 10.0458 16.432 12.9275 16.5ZM5.00003 4.0575L6.94253 6L5.97503 6.9675C5.88339 7.05333 5.81477 7.1608 5.77546 7.28005C5.73615 7.39929 5.7274 7.5265 5.75003 7.65C6.03035 8.90278 6.62386 10.064 7.47503 11.025C8.43529 11.8773 9.5968 12.4709 10.85 12.75C10.9717 12.7754 11.0977 12.7702 11.2168 12.7349C11.336 12.6995 11.4444 12.6351 11.5325 12.5475L12.5 11.5575L14.4425 13.5L12.9425 15C10.4553 14.936 8.08215 13.9433 6.29002 12.2175C4.55971 10.4246 3.56423 8.04833 3.50003 5.5575L5.00003 4.0575ZM15.5 8.25H17C17.0195 7.35825 16.8582 6.47179 16.5258 5.64405C16.1935 4.81632 15.697 4.06443 15.0663 3.43372C14.4356 2.80301 13.6837 2.30652 12.856 1.97419C12.0282 1.64185 11.1418 1.48055 10.25 1.5V3C10.946 2.97593 11.6394 3.09526 12.2872 3.35057C12.9351 3.60589 13.5235 3.99174 14.0159 4.48413C14.5083 4.97652 14.8941 5.56493 15.1494 6.21278C15.4048 6.86063 15.5241 7.55407 15.5 8.25Z" fill="white"/>
<path d="M10.25 6C11.825 6 12.5 6.675 12.5 8.25H14C14 5.835 12.665 4.5 10.25 4.5V6Z" fill="white"/>
</svg>
