<svg width="25" height="25" viewBox="0 0 25 25" fill="none" xmlns="http://www.w3.org/2000/svg">
<path d="M7.05859 11.5H9.05859V13.5H7.05859V11.5ZM7.05859 15.5H9.05859V17.5H7.05859V15.5ZM11.0586 11.5H13.0586V13.5H11.0586V11.5ZM11.0586 15.5H13.0586V17.5H11.0586V15.5ZM15.0586 11.5H17.0586V13.5H15.0586V11.5ZM15.0586 15.5H17.0586V17.5H15.0586V15.5Z" fill="black"/>
<path d="M5.05859 22.5H19.0586C20.1616 22.5 21.0586 21.603 21.0586 20.5V6.5C21.0586 5.397 20.1616 4.5 19.0586 4.5H17.0586V2.5H15.0586V4.5H9.05859V2.5H7.05859V4.5H5.05859C3.95559 4.5 3.05859 5.397 3.05859 6.5V20.5C3.05859 21.603 3.95559 22.5 5.05859 22.5ZM19.0586 8.5L19.0596 20.5H5.05859V8.5H19.0586Z" fill="black"/>
</svg>
