<svg width="24" height="24" viewBox="0 0 24 24" fill="none" xmlns="http://www.w3.org/2000/svg">
<rect x="0.5" y="0.5" width="23" height="23" rx="3.5" fill="#0D0D0D" stroke="#EBEBEB"/>
<path d="M10.5605 13.9938L17.2699 7.28438C17.4282 7.12604 17.6129 7.04688 17.824 7.04688C18.0351 7.04688 18.2199 7.12604 18.3782 7.28438C18.5365 7.44271 18.6157 7.63086 18.6157 7.84883C18.6157 8.06681 18.5365 8.25469 18.3782 8.4125L11.1146 15.6958C10.9563 15.8542 10.7716 15.9333 10.5605 15.9333C10.3494 15.9333 10.1646 15.8542 10.0063 15.6958L6.60214 12.2917C6.44381 12.1333 6.36781 11.9454 6.37414 11.728C6.38048 11.5106 6.46308 11.3224 6.62194 11.1635C6.7808 11.0047 6.96895 10.9255 7.18639 10.926C7.40384 10.9266 7.59173 11.0057 7.75006 11.1635L10.5605 13.9938Z" fill="white"/>
</svg>
